<svg width="833" height="680" viewBox="0 0 833 680" fill="none" xmlns="http://www.w3.org/2000/svg">
<path opacity="0.5" d="M669 100L683.797 85.3975C689.639 79.633 699.028 79.633 704.869 85.3975L709.131 89.6025C714.972 95.367 724.361 95.367 730.203 89.6025L745 75" stroke="white" stroke-width="13" stroke-linecap="round"/>
<path opacity="0.5" d="M7 661L21.7972 646.398C27.6386 640.633 37.0281 640.633 42.8695 646.397L47.1305 650.602C52.9719 656.367 62.3614 656.367 68.2028 650.603L83 636" stroke="#F58D56" stroke-width="13" stroke-linecap="round"/>
<path opacity="0.5" d="M750 112L764.797 97.3975C770.639 91.633 780.028 91.633 785.869 97.3975L790.131 101.602C795.972 107.367 805.361 107.367 811.203 101.603L826 87" stroke="white" stroke-width="13" stroke-linecap="round"/>
<path opacity="0.5" d="M88 673L102.797 658.398C108.639 652.633 118.028 652.633 123.869 658.397L128.131 662.602C133.972 668.367 143.361 668.367 149.203 662.603L164 648" stroke="#F58D56" stroke-width="13" stroke-linecap="round"/>
<circle opacity="0.5" cx="768.5" cy="547.5" r="20.5" fill="#F58D56"/>
<circle opacity="0.5" cx="139.5" cy="15.5" r="15.5" fill="white"/>
<circle opacity="0.5" cx="761.5" cy="596.5" r="13.5" fill="#F58D56"/>
<circle opacity="0.5" cx="134.5" cy="52.5" r="10.5" fill="white"/>
<circle opacity="0.5" cx="800" cy="575" r="11" fill="#F58D56"/>
<circle opacity="0.5" cx="163.5" cy="36.5" r="8.5" fill="white"/>
</svg>
